<svg width="157" height="58" viewBox="0 0 157 58" fill="none" xmlns="http://www.w3.org/2000/svg">
<g filter="url(#filter0_d)">
<path d="M4 8C4 4.68629 6.68629 2 10 2H124.856C125.593 2 126.304 2.27131 126.854 2.76219L151.494 24.7622C152.83 25.955 152.83 28.045 151.494 29.2378L126.854 51.2378C126.304 51.7287 125.593 52 124.856 52H10C6.68629 52 4 49.3137 4 46V8Z" fill="#3E8FF2"/>
<path d="M4.5 8C4.5 4.96243 6.96243 2.5 10 2.5H124.856C125.47 2.5 126.062 2.72609 126.521 3.13516L151.161 25.1352C152.274 26.1292 152.274 27.8708 151.161 28.8648L126.521 50.8648C126.062 51.2739 125.47 51.5 124.856 51.5H10C6.96243 51.5 4.5 49.0376 4.5 46V8Z" stroke="#3789EC"/>
</g>
<path d="M51.9004 37.3486H50.4766V34H41.5469V37.3486H40.123V32.6465H41.1162C42.0186 31.1289 42.7891 29.2832 43.4277 27.1094C44.0723 24.9355 44.4297 22.9492 44.5 21.1504H50.2744V32.6465H51.9004V37.3486ZM48.7803 32.6465V22.4951H45.8535C45.748 23.9131 45.3936 25.6182 44.79 27.6104C44.1865 29.5967 43.4834 31.2754 42.6807 32.6465H48.7803ZM62.1484 34L60.5488 29.9131H55.3984L53.8164 34H52.3047L57.3848 21.0977H58.6416L63.6953 34H62.1484ZM60.083 28.5684L58.5889 24.5869C58.3955 24.083 58.1963 23.4648 57.9912 22.7324C57.8623 23.2949 57.6777 23.9131 57.4375 24.5869L55.9258 28.5684H60.083ZM74.6025 34H73.1084V22.4775H68.9336L68.6611 24.5869C68.3037 27.3936 67.9873 29.4473 67.7119 30.748C67.4424 32.043 67.085 32.9453 66.6396 33.4551C66.1943 33.9648 65.6025 34.2139 64.8643 34.2021C64.4307 34.2021 64.041 34.1289 63.6953 33.9824V32.7256C64.0117 32.8779 64.3428 32.9541 64.6885 32.9541C64.999 32.9541 65.2686 32.8281 65.4971 32.5762C65.7314 32.3184 65.9365 31.876 66.1123 31.249C66.2939 30.6162 66.5195 29.4209 66.7891 27.6631C67.0645 25.8994 67.3662 23.7285 67.6943 21.1504H74.6025V34ZM85.2988 34H78.1357V21.1504H85.2988V22.4775H79.6299V26.6172H84.9561V27.9355H79.6299V32.6641H85.2988V34ZM95.3184 34H88.1553V21.1504H95.3184V22.4775H89.6494V26.6172H94.9756V27.9355H89.6494V32.6641H95.3184V34Z" fill="white"/>
<defs>
<filter id="filter0_d" x="0" y="0" width="156.496" height="58" filterUnits="userSpaceOnUse" color-interpolation-filters="sRGB">
<feFlood flood-opacity="0" result="BackgroundImageFix"/>
<feColorMatrix in="SourceAlpha" type="matrix" values="0 0 0 0 0 0 0 0 0 0 0 0 0 0 0 0 0 0 127 0"/>
<feOffset dy="2"/>
<feGaussianBlur stdDeviation="2"/>
<feColorMatrix type="matrix" values="0 0 0 0 0 0 0 0 0 0 0 0 0 0 0 0 0 0 0.25 0"/>
<feBlend mode="normal" in2="BackgroundImageFix" result="effect1_dropShadow"/>
<feBlend mode="normal" in="SourceGraphic" in2="effect1_dropShadow" result="shape"/>
</filter>
</defs>
</svg>
